<svg width="26" height="16" viewBox="0 0 26 16" fill="none" xmlns="http://www.w3.org/2000/svg">
<path d="M7.43622 0C8.18681 0 8.86538 0.0624156 9.48713 0.20005C10.1001 0.337684 10.629 0.550537 11.0707 0.850613C11.5084 1.15069 11.8501 1.54279 12.0958 2.04691C12.3334 2.54704 12.4583 3.16799 12.4583 3.89297C12.4583 4.68037 12.275 5.34374 11.9165 5.87667C11.5541 6.4104 11.0243 6.83531 10.3121 7.17699C11.2788 7.45626 11.9958 7.94359 12.4711 8.63976C12.9504 9.34394 13.1793 10.1857 13.1793 11.1572C13.1793 11.9574 13.0416 12.6408 12.7415 13.2161C12.4455 13.8035 12.0286 14.2828 11.5036 14.6581C10.9907 15.0294 10.3826 15.2958 9.72399 15.4751C9.07343 15.6503 8.38606 15.7463 7.68588 15.7463H0.0335693V0.00880194H7.43542L7.43622 0ZM18.1101 12.9744C18.5766 13.433 19.252 13.6618 20.1314 13.6618C20.7604 13.6618 21.3029 13.5034 21.7606 13.1825C22.2151 12.8744 22.4856 12.5319 22.5944 12.1822H25.3535C24.9246 13.545 24.2364 14.5284 23.3282 15.1166C22.42 15.7127 21.3197 16 20.0442 16C19.1479 16 18.3517 15.8624 17.6188 15.5751C16.9018 15.2878 16.2936 14.8789 15.7847 14.358C15.2886 13.8371 14.9053 13.2073 14.634 12.4703C14.3628 11.7333 14.2339 10.9243 14.2339 10.0489C14.2339 9.1903 14.3796 8.4069 14.6676 7.66912C14.9549 6.92333 15.351 6.30238 15.8599 5.76064C16.3889 5.2149 16.9938 4.806 17.7148 4.48512C18.4318 4.16424 19.2072 4.02261 20.0818 4.02261C21.0532 4.02261 21.8862 4.19785 22.62 4.58115C23.337 4.94364 23.9243 5.45656 24.3917 6.07352C24.863 6.69848 25.1919 7.41945 25.3959 8.23246C25.6 9.03266 25.6624 9.87447 25.6208 10.7707H17.4147C17.4147 11.6669 17.7148 12.5127 18.1733 12.9712L18.0861 13.0049L18.1101 12.9744ZM7.18176 13.0281C7.51944 13.0281 7.84432 12.9944 8.1484 12.928C8.45648 12.8656 8.73174 12.7528 8.9614 12.6072C9.18626 12.4655 9.37831 12.2567 9.51994 11.9862C9.65758 11.7317 9.71999 11.378 9.71999 10.9611C9.71999 10.1609 9.48633 9.5856 9.03662 9.23591C8.57811 8.89423 7.98196 8.72298 7.23617 8.72298H3.48963V13.0449H7.18256V13.0113L7.18176 13.0281ZM21.7022 7.00175C21.3229 6.58885 20.6979 6.36799 19.9305 6.36799C19.4344 6.36799 19.0223 6.44721 18.6886 6.62246C18.3678 6.7809 18.1013 6.99775 17.8964 7.25141C17.6964 7.50588 17.5588 7.76434 17.4795 8.05161C17.4003 8.33088 17.3507 8.58535 17.3379 8.8102H22.4184C22.3431 8.01 22.0639 7.42266 21.6934 7.00575V7.01856L21.7022 7.00175ZM6.99051 6.34319C7.60346 6.34319 8.11159 6.20155 8.51169 5.90548C8.91179 5.61821 9.10384 5.13408 9.10384 4.47632C9.10384 4.10983 9.02862 3.80975 8.91179 3.57609C8.77015 3.33843 8.59091 3.15919 8.37806 3.03036C8.1532 2.89672 7.89474 2.8055 7.60666 2.75509C7.31939 2.69667 7.01051 2.67587 6.71044 2.67587H3.48083V6.34319H6.99051ZM16.6969 1.05466H23.0649V2.60465H16.6969V1.04186V1.05466Z" fill="white"/>
</svg>
