<svg width="23" height="20" viewBox="0 0 23 20" fill="none" xmlns="http://www.w3.org/2000/svg">
<path d="M11.5 0.000535672C8.71187 -0.0273746 6.02656 1.03638 4.03423 2.958C2.0419 4.87963 0.905581 7.50189 0.875 10.2485C0.885743 12.4191 1.59455 14.5305 2.89961 16.2794C4.20466 18.0283 6.03882 19.3248 8.13864 19.9826C8.66989 20.0778 8.86307 19.7638 8.86307 19.4878C8.86307 19.2119 8.86307 18.6029 8.86307 17.7465C5.90739 18.365 5.27955 16.3763 5.27955 16.3763C5.08279 15.752 4.66449 15.2184 4.10114 14.8729C3.13523 14.2449 4.17841 14.2544 4.17841 14.2544C4.51228 14.2984 4.83171 14.4163 5.11274 14.5992C5.39378 14.7821 5.62913 15.0253 5.80114 15.3106C6.10089 15.8227 6.59273 16.1983 7.17081 16.3567C7.74888 16.5151 8.36697 16.4435 8.89205 16.1575C8.94605 15.6364 9.18558 15.151 9.56818 14.7873C7.21136 14.5304 4.73864 13.655 4.73864 9.72515C4.71756 8.70005 5.10205 7.70707 5.8108 6.95621C5.48801 6.07611 5.52613 5.10673 5.91705 4.25387C5.91705 4.25387 6.81534 3.97792 8.81477 5.30055C10.5552 4.84366 12.3868 4.84366 14.1273 5.30055C16.1557 3.97792 17.025 4.25387 17.025 4.25387C17.4159 5.10673 17.454 6.07611 17.1313 6.95621C17.8565 7.6933 18.2618 8.67962 18.2614 9.70612C18.2614 13.6454 15.7693 14.5113 13.4318 14.7682C13.6878 15.013 13.8855 15.3107 14.0107 15.6397C14.136 15.9688 14.1857 16.3211 14.1562 16.6713V19.4783C14.1562 19.4783 14.3494 20.0778 14.8807 19.9731C16.9745 19.3112 18.8025 18.0144 20.1035 16.268C21.4046 14.5215 22.1121 12.4147 22.125 10.2485C22.0944 7.50189 20.9581 4.87963 18.9658 2.958C16.9734 1.03638 14.2881 -0.0273746 11.5 0.000535672Z" fill="white"/>
</svg>
