<svg width="21" height="14" viewBox="0 0 21 14" fill="none" xmlns="http://www.w3.org/2000/svg">
<path fill-rule="evenodd" clip-rule="evenodd" d="M20.5182 0.94799C20.6641 0.40154 20.5182 0 19.8234 0H17.526C16.9419 0 16.6725 0.34687 16.5265 0.72936C16.5265 0.72936 15.3581 3.92607 13.703 6.0025C13.1676 6.6036 12.9242 6.7949 12.6321 6.7949C12.4861 6.7949 12.267 6.6036 12.267 6.0572V0.94799C12.267 0.29225 12.1052 0 11.6184 0H8.00812C7.64308 0 7.42353 0.30434 7.42353 0.59278C7.42353 1.21441 8.25103 1.35777 8.33633 3.10641V6.9042C8.33633 7.7368 8.20237 7.8878 7.91029 7.8878C7.13146 7.8878 5.23694 4.67682 4.11332 1.00261C3.89312 0.28847 3.67226 0 3.0851 0H0.787692C0.131289 0 0 0.34687 0 0.72936C0 1.41244 0.778874 4.80039 3.62656 9.2812C5.52501 12.3412 8.19979 14 10.6337 14C12.0941 14 12.2748 13.6316 12.2748 12.997V10.6842C12.2748 9.9474 12.4131 9.8003 12.8756 9.8003C13.2163 9.8003 13.8004 9.9916 15.1634 11.467C16.7212 13.2156 16.978 14 17.8541 14H20.1516C20.808 14 21.1362 13.6316 20.9468 12.9045C20.7396 12.1799 19.996 11.1286 19.0091 9.8823C18.4736 9.1719 17.6704 8.4069 17.427 8.0243C17.0862 7.5326 17.1836 7.314 17.427 6.8769C17.427 6.8769 20.2261 2.45067 20.5182 0.94799Z" fill="white"/>
</svg>
